<svg xmlns="http://www.w3.org/2000/svg" width="24" height="24" fill="currentColor" viewBox="0 0 24 24"><path d="M12 .297c-6.63 0-12 5.373-12 12 0 5.303 3.438 9.8 8.205 11.385.6.113.82-.258.82-.577v-2.03c-3.338.724-4.033-1.416-4.033-1.416-.546-1.387-1.333-1.757-1.333-1.757-1.089-.744.084-.729.084-.729 1.205.084 1.838 1.236 1.838 1.236 1.07 1.835 2.807 1.305 3.492.998.108-.775.419-1.305.762-1.605-2.665-.3-5.466-1.332-5.466-5.93 0-1.31.468-2.382 1.236-3.22-.124-.303-.535-1.524.117-3.176 0 0 1.008-.322 3.301 1.23.957-.266 1.983-.399 3.003-.404 1.02.005 2.047.138 3.006.404 2.29-1.552 3.297-1.23 3.297-1.23.653 1.653.242 2.874.118 3.176.77.838 1.236 1.91 1.236 3.22 0 4.61-2.803 5.625-5.475 5.921.43.37.823 1.1.823 2.215v3.293c0 .322.217.694.824.576 4.765-1.588 8.2-6.083 8.2-11.384 0-6.627-5.373-12-12-12z"/></svg>